<svg width="10" height="16" viewBox="0 0 10 16" fill="none" xmlns="http://www.w3.org/2000/svg">
<path d="M8 7C7.44772 7 7 7.44772 7 8C7 8.55228 7.44772 9 8 9V7ZM8.90711 8.70711C9.29763 8.31658 9.29763 7.68342 8.90711 7.29289L2.54315 0.928932C2.15262 0.538408 1.51946 0.538408 1.12893 0.928932C0.738408 1.31946 0.738408 1.95262 1.12893 2.34315L6.78579 8L1.12893 13.6569C0.738408 14.0474 0.738408 14.6805 1.12893 15.0711C1.51946 15.4616 2.15262 15.4616 2.54315 15.0711L8.90711 8.70711ZM8 9H8.2V7H8V9Z" fill="#9DF850"/>
</svg>
