<svg width="10" height="16" viewBox="0 0 10 16" fill="none" xmlns="http://www.w3.org/2000/svg">
<path d="M2 7C2.55228 7 3 7.44772 3 8C3 8.55228 2.55228 9 2 9V7ZM1.09289 8.70711C0.702369 8.31658 0.702369 7.68342 1.09289 7.29289L7.45685 0.928932C7.84738 0.538408 8.48054 0.538408 8.87107 0.928932C9.26159 1.31946 9.26159 1.95262 8.87107 2.34315L3.21421 8L8.87107 13.6569C9.26159 14.0474 9.26159 14.6805 8.87107 15.0711C8.48054 15.4616 7.84738 15.4616 7.45685 15.0711L1.09289 8.70711ZM2 9H1.8V7H2V9Z" fill="#9DF850"/>
</svg>
