<svg width="32" height="28" viewBox="0 0 32 28" fill="none" xmlns="http://www.w3.org/2000/svg">
<path d="M23 8C26.045 8.01569 27.6942 8.14256 28.7694 9.14702C30 10.2967 30 12.146 30 15.8447V17.1526C30 20.8527 30 22.702 28.7694 23.8517C27.5402 25 25.5592 25 21.6 25H10.4C6.4408 25 4.4598 25 3.2306 23.8517C2 22.7007 2 20.8527 2 17.1526V15.8447C2 12.146 2 10.2967 3.2306 9.14702C4.3058 8.14256 5.955 8.01569 9 8" stroke="#1F1F1F" stroke-width="1.8" stroke-linecap="round"/>
<path d="M16 2.6665V19.9998M16 19.9998L12 15.3332M16 19.9998L20 15.3332" stroke="#1F1F1F" stroke-width="1.8" stroke-linecap="round" stroke-linejoin="round"/>
</svg>
