<svg width="24" height="24" viewBox="0 0 24 24" fill="none" xmlns="http://www.w3.org/2000/svg">
<g clip-path="url(#clip0_1748_4004)">
<path d="M22.8841 1.29808C22.8751 1.25464 22.8539 1.21468 22.823 1.18289C22.7921 1.15111 22.7527 1.12882 22.7096 1.11865C19.8336 0.414688 13.1901 2.92302 9.58696 6.52646C8.9448 7.16387 8.35926 7.85597 7.83696 8.59495C6.72635 8.49438 5.61574 8.57907 4.67014 8.99192C1.99992 10.167 1.22302 13.2358 1.00619 14.5532C0.994443 14.6254 0.999461 14.6993 1.02086 14.7693C1.04225 14.8392 1.07945 14.9033 1.12957 14.9565C1.17968 15.0097 1.24137 15.0507 1.30986 15.0762C1.37834 15.1017 1.45178 15.1111 1.52447 15.1037L5.81195 14.6326C5.81492 14.9563 5.83433 15.2796 5.87013 15.6012C5.8925 15.8236 5.99162 16.0311 6.15042 16.1882L7.81052 17.8497C7.9676 18.0087 8.17521 18.1079 8.39755 18.1302C8.71703 18.1659 9.03811 18.1853 9.35955 18.1884L8.88939 22.4757C8.88205 22.5484 8.8915 22.6218 8.91702 22.6902C8.94253 22.7586 8.98343 22.8203 9.03654 22.8703C9.08965 22.9204 9.15356 22.9576 9.22332 22.979C9.29309 23.0005 9.36684 23.0056 9.43888 22.9939C10.7557 22.7822 13.8284 22.0046 14.9956 19.3328C15.4081 18.3853 15.4927 17.2796 15.3976 16.1734C16.1381 15.6512 16.8316 15.0651 17.4702 14.422C21.0865 10.8228 23.5769 4.31983 22.8841 1.29808ZM14.2557 9.7594C13.9399 9.44334 13.7247 9.04063 13.6376 8.6022C13.5504 8.16377 13.5951 7.70932 13.766 7.29631C13.9369 6.8833 14.2263 6.53029 14.5977 6.28193C14.9691 6.03356 15.4057 5.901 15.8524 5.901C16.299 5.901 16.7357 6.03356 17.107 6.28193C17.4784 6.53029 17.7679 6.8833 17.9388 7.29631C18.1097 7.70932 18.1544 8.16377 18.0672 8.6022C17.98 9.04063 17.7649 9.44334 17.449 9.7594C17.2395 9.96953 16.9906 10.1362 16.7167 10.25C16.4427 10.3637 16.149 10.4223 15.8524 10.4223C15.5558 10.4223 15.2621 10.3637 14.9881 10.25C14.7141 10.1362 14.4653 9.96953 14.2557 9.7594Z" stroke="#9DF850" stroke-width="1.5" stroke-linecap="round" stroke-linejoin="round"/>
<path d="M3.90167 17C3.4863 17.0637 3.09987 17.2991 2.80375 17.6687C2.06958 18.5896 2 22 2 22C2 22 4.73 21.913 5.46458 20.9943C5.76149 20.6247 5.95011 20.1409 6 19.6208" stroke="#9DF850" stroke-width="1.5" stroke-linecap="round" stroke-linejoin="round"/>
</g>
<defs>
<clipPath id="clip0_1748_4004">
<rect width="24" height="24" fill="white"/>
</clipPath>
</defs>
</svg>
