<svg width="24" height="24" viewBox="0 0 24 24" fill="none" xmlns="http://www.w3.org/2000/svg">
<path fill-rule="evenodd" clip-rule="evenodd" d="M12 24C18.6274 24 24 18.6274 24 12C24 5.37258 18.6274 0 12 0C5.37258 0 0 5.37258 0 12C0 18.6274 5.37258 24 12 24ZM14.6153 13.4473C15.3195 14.0279 16.0942 14.3847 16.9207 14.3847C17.4582 14.3841 17.9734 14.1665 18.3536 13.7795C18.7337 13.3925 18.9478 12.8678 18.9487 12.3204C18.9484 11.7728 18.7346 11.2478 18.3545 10.8606C17.9744 10.4735 17.459 10.2558 16.9215 10.2553C15.429 10.2553 14.9475 11.7199 14.7922 12.5931L14.7863 12.6252L14.6153 13.4473ZM12.9383 11.5014C13.5382 9.42566 15.0165 8.16584 16.9207 8.16584C19.1707 8.16584 21 10.0292 21 12.3212C21 14.6116 19.1707 16.4849 16.9207 16.4849C15.87 16.4849 14.9535 16.1564 14.1562 15.6376L13.2465 20H11.1488L12.4035 13.9851C11.8095 13.2273 11.3197 12.3701 10.923 11.5243V12.4335C10.923 14.6597 9.1455 16.4849 6.96075 16.4849C4.7775 16.4849 3 14.6597 3 12.4335V7H5.052V12.4335C5.0524 12.9492 5.25355 13.4438 5.61136 13.8087C5.96917 14.1736 6.45443 14.3791 6.96075 14.3801C7.46727 14.3793 7.9528 14.1739 8.31089 13.809C8.66898 13.4441 8.87041 12.9494 8.871 12.4335V7H10.923C11.3273 8.41796 12.0233 10.1003 12.9383 11.5014Z" fill="white"/>
</svg>
