<svg width="80" height="80" viewBox="0 0 80 80" fill="none" xmlns="http://www.w3.org/2000/svg">
<g clip-path="url(#clip0_1748_4389)">
<path d="M14.1667 6.44812e-06H65.8333C67.6942 -0.00179242 69.5372 0.372807 71.2568 1.10237C72.9763 1.83193 74.5387 2.90212 75.8546 4.25171C77.1704 5.60129 78.2139 7.20377 78.9252 8.96743C79.6365 10.7311 80.0018 12.6213 80 14.5299V65.4701C80.0018 67.3787 79.6365 69.2689 78.9252 71.0326C78.2139 72.7962 77.1704 74.3987 75.8546 75.7483C74.5387 77.0979 72.9763 78.1681 71.2568 78.8976C69.5372 79.6272 67.6942 80.0018 65.8333 80H14.1667C12.3058 80.0018 10.4628 79.6272 8.74325 78.8976C7.02368 78.1681 5.46126 77.0979 4.14541 75.7483C2.82957 74.3987 1.78613 72.7962 1.07481 71.0326C0.363487 69.2689 -0.00174761 67.3787 6.28692e-06 65.4701V14.5299C-0.00174761 12.6213 0.363487 10.7311 1.07481 8.96743C1.78613 7.20377 2.82957 5.60129 4.14541 4.25171C5.46126 2.90212 7.02368 1.83193 8.74325 1.10237C10.4628 0.372807 12.3058 -0.00179242 14.1667 6.44812e-06Z" fill="#001E36"/>
<path d="M18 56.1025V20.923C18 20.6837 18.1 20.5469 18.3333 20.5469C18.9 20.5469 19.4333 20.5469 20.2 20.5127C20.9667 20.4785 21.8333 20.4785 22.7333 20.4444C23.6333 20.4102 24.6 20.4102 25.6333 20.376C26.6667 20.3418 27.6667 20.3418 28.6667 20.3418C31.4 20.3418 33.6667 20.6837 35.5333 21.4016C37.2067 21.9844 38.7325 22.9421 40 24.205C41.0741 25.3103 41.904 26.6395 42.4333 28.1025C42.9379 29.5272 43.1973 31.0311 43.2 32.5469C43.2 35.4871 42.5333 37.9144 41.2 39.829C39.8605 41.7409 37.9903 43.1944 35.8333 43.9999C33.5667 44.8546 31.0667 45.1623 28.3333 45.1623C27.5333 45.1623 27 45.1623 26.6667 45.1281C26.3333 45.0939 25.8667 45.0939 25.2333 45.0939V56.0683C25.2408 56.1245 25.2371 56.1818 25.2226 56.2365C25.2081 56.2913 25.183 56.3426 25.1488 56.3872C25.1146 56.4318 25.072 56.469 25.0235 56.4964C24.9751 56.5239 24.9217 56.541 24.8667 56.5469H18.4C18.1333 56.5469 18 56.4102 18 56.1025ZM25.2667 27.1452V38.6324C25.7333 38.6666 26.1667 38.7008 26.5667 38.7008H28.3333C29.6346 38.7024 30.9281 38.4947 32.1667 38.0854C33.2293 37.7649 34.1787 37.1355 34.9 36.2734C35.6 35.4187 35.9333 34.2563 35.9333 32.7521C35.9647 31.6837 35.6988 30.6283 35.1667 29.7093C34.6109 28.8217 33.7935 28.139 32.8333 27.7606C31.582 27.2579 30.243 27.0252 28.9 27.0768C28.0333 27.0768 27.2667 27.0768 26.6333 27.111C26.1777 27.0805 25.7203 27.0919 25.2667 27.1452Z" fill="#31A8FF"/>
<path d="M64 36.5468C62.9936 36.0031 61.9157 35.6116 60.8 35.3844C59.5746 35.0998 58.323 34.9508 57.0667 34.94C56.3921 34.9161 55.7178 34.9968 55.0667 35.1793C54.6515 35.2679 54.2832 35.5116 54.0333 35.863C53.8649 36.1404 53.7728 36.4594 53.7667 36.7861C53.7822 37.1114 53.899 37.4229 54.1 37.675C54.4159 38.0551 54.8008 38.3686 55.2333 38.5981C56 39.0083 56.8 39.3844 57.6 39.7263C59.4009 40.3481 61.124 41.1858 62.7333 42.222C63.828 42.928 64.7332 43.9034 65.3667 45.0596C65.9023 46.1503 66.1657 47.3602 66.1333 48.581C66.1604 50.1969 65.7069 51.7829 64.8333 53.128C63.9036 54.4927 62.6063 55.5501 61.1 56.1707C59.4667 56.8887 57.4667 57.2648 55.0667 57.2648C53.5449 57.2711 52.0264 57.1222 50.5333 56.8203C49.3577 56.612 48.2143 56.2441 47.1333 55.7263C47.0171 55.6665 46.9205 55.5731 46.8553 55.4577C46.7902 55.3423 46.7594 55.2099 46.7667 55.0767V49.128C46.7638 49.0696 46.7744 49.0113 46.7975 48.9578C46.8207 48.9044 46.8558 48.8573 46.9 48.8203C46.947 48.7922 47.0015 48.7804 47.0555 48.7866C47.1095 48.7927 47.1602 48.8165 47.2 48.8545C48.484 49.6309 49.8787 50.1961 51.3333 50.5297C52.6177 50.8725 53.9396 51.0448 55.2667 51.0425C56.5333 51.0425 57.4333 50.8716 58.0333 50.5639C58.301 50.4371 58.5278 50.2347 58.6872 49.9804C58.8466 49.726 58.932 49.4303 58.9333 49.128C58.9333 48.6494 58.6667 48.2049 58.1333 47.7605C57.6 47.316 56.5 46.8032 54.8667 46.1536C53.1911 45.5481 51.5998 44.7206 50.1333 43.6921C49.0888 42.9286 48.2234 41.9358 47.6 40.7861C47.068 39.7063 46.8047 38.5084 46.8333 37.2989C46.8383 35.8401 47.23 34.4101 47.9667 33.1622C48.8135 31.7897 50.0289 30.6975 51.4667 30.0169C53.0333 29.1964 55 28.8203 57.3667 28.8203C58.7499 28.8207 60.1312 28.9235 61.5 29.128C62.4842 29.2646 63.4474 29.5288 64.3667 29.9143C64.5131 29.9676 64.633 30.0782 64.7 30.222C64.7384 30.3555 64.7608 30.4933 64.7667 30.6323V36.2049C64.7672 36.2714 64.7524 36.337 64.7234 36.3964C64.6944 36.4558 64.6521 36.5074 64.6 36.5468C64.4061 36.6183 64.1939 36.6183 64 36.5468Z" fill="#31A8FF"/>
</g>
<defs>
<clipPath id="clip0_1748_4389">
<rect width="80" height="80" fill="white"/>
</clipPath>
</defs>
</svg>
