<svg style="display: none;" aria-hidden="true" xmlns="http://www.w3.org/2000/svg" xmlns:xlink="http://www.w3.org/1999/xlink">
	<symbol viewBox="0 0 10 16" stroke="none" id="90deg-arrow-left" xmlns="http://www.w3.org/2000/svg">
		<path d="M2 7C2.55228 7 3 7.44772 3 8C3 8.55228 2.55228 9 2 9V7ZM1.09289 8.70711C0.702369 8.31658 0.702369 7.68342 1.09289 7.29289L7.45685 0.928932C7.84738 0.538408 8.48054 0.538408 8.87107 0.928932C9.26159 1.31946 9.26159 1.95262 8.87107 2.34315L3.21421 8L8.87107 13.6569C9.26159 14.0474 9.26159 14.6805 8.87107 15.0711C8.48054 15.4616 7.84738 15.4616 7.45685 15.0711L1.09289 8.70711ZM2 9H1.8V7H2V9Z"/>
	</symbol>
	<symbol viewBox="0 0 10 16" stroke="none" id="90deg-arrow-right" xmlns="http://www.w3.org/2000/svg">
		<path d="M8 7C7.44772 7 7 7.44772 7 8C7 8.55228 7.44772 9 8 9V7ZM8.90711 8.70711C9.29763 8.31658 9.29763 7.68342 8.90711 7.29289L2.54315 0.928932C2.15262 0.538408 1.51946 0.538408 1.12893 0.928932C0.738408 1.31946 0.738408 1.95262 1.12893 2.34315L6.78579 8L1.12893 13.6569C0.738408 14.0474 0.738408 14.6805 1.12893 15.0711C1.51946 15.4616 2.15262 15.4616 2.54315 15.0711L8.90711 8.70711ZM8 9H8.2V7H8V9Z"/>
	</symbol>
	<symbol viewBox="0 0 18 16" stroke="none" id="simple-arrow-right" xmlns="http://www.w3.org/2000/svg">
		<path d="M1 7C0.447715 7 0 7.44772 0 8C0 8.55228 0.447715 9 1 9V7ZM17.7071 8.70711C18.0976 8.31658 18.0976 7.68342 17.7071 7.29289L11.3431 0.928932C10.9526 0.538408 10.3195 0.538408 9.92893 0.928932C9.53841 1.31946 9.53841 1.95262 9.92893 2.34315L15.5858 8L9.92893 13.6569C9.53841 14.0474 9.53841 14.6805 9.92893 15.0711C10.3195 15.4616 10.9526 15.4616 11.3431 15.0711L17.7071 8.70711ZM1 9H17V7H1V9Z"/>
	</symbol>
	<symbol viewBox="0 0 24 24" stroke="none" id="facebook" xmlns="http://www.w3.org/2000/svg">
		<path d="M24 12C24 5.37258 18.6274 0 12 0C5.37258 0 0 5.37258 0 12C0 17.9895 4.3882 22.954 10.125 23.8542V15.4688H7.07812V12H10.125V9.35625C10.125 6.34875 11.9166 4.6875 14.6576 4.6875C15.9701 4.6875 17.3438 4.92188 17.3438 4.92188V7.875H15.8306C14.34 7.875 13.875 8.80008 13.875 9.75V12H17.2031L16.6711 15.4688H13.875V23.8542C19.6118 22.954 24 17.9895 24 12Z"/>
	</symbol>
	<symbol viewBox="0 0 24 24" stroke="none" id="instagram" xmlns="http://www.w3.org/2000/svg">
		<path d="M12 2.16094C15.2063 2.16094 15.5859 2.175 16.8469 2.23125C18.0188 2.28281 18.6516 2.47969 19.0734 2.64375C19.6313 2.85938 20.0344 3.12188 20.4516 3.53906C20.8734 3.96094 21.1313 4.35938 21.3469 4.91719C21.5109 5.33906 21.7078 5.97656 21.7594 7.14375C21.8156 8.40937 21.8297 8.78906 21.8297 11.9906C21.8297 15.1969 21.8156 15.5766 21.7594 16.8375C21.7078 18.0094 21.5109 18.6422 21.3469 19.0641C21.1313 19.6219 20.8687 20.025 20.4516 20.4422C20.0297 20.8641 19.6313 21.1219 19.0734 21.3375C18.6516 21.5016 18.0141 21.6984 16.8469 21.75C15.5813 21.8062 15.2016 21.8203 12 21.8203C8.79375 21.8203 8.41406 21.8062 7.15313 21.75C5.98125 21.6984 5.34844 21.5016 4.92656 21.3375C4.36875 21.1219 3.96563 20.8594 3.54844 20.4422C3.12656 20.0203 2.86875 19.6219 2.65313 19.0641C2.48906 18.6422 2.29219 18.0047 2.24063 16.8375C2.18438 15.5719 2.17031 15.1922 2.17031 11.9906C2.17031 8.78438 2.18438 8.40469 2.24063 7.14375C2.29219 5.97187 2.48906 5.33906 2.65313 4.91719C2.86875 4.35938 3.13125 3.95625 3.54844 3.53906C3.97031 3.11719 4.36875 2.85938 4.92656 2.64375C5.34844 2.47969 5.98594 2.28281 7.15313 2.23125C8.41406 2.175 8.79375 2.16094 12 2.16094ZM12 0C8.74219 0 8.33438 0.0140625 7.05469 0.0703125C5.77969 0.126563 4.90313 0.332812 4.14375 0.628125C3.35156 0.9375 2.68125 1.34531 2.01563 2.01562C1.34531 2.68125 0.9375 3.35156 0.628125 4.13906C0.332812 4.90313 0.126563 5.775 0.0703125 7.05C0.0140625 8.33437 0 8.74219 0 12C0 15.2578 0.0140625 15.6656 0.0703125 16.9453C0.126563 18.2203 0.332812 19.0969 0.628125 19.8563C0.9375 20.6484 1.34531 21.3188 2.01563 21.9844C2.68125 22.65 3.35156 23.0625 4.13906 23.3672C4.90313 23.6625 5.775 23.8687 7.05 23.925C8.32969 23.9812 8.7375 23.9953 11.9953 23.9953C15.2531 23.9953 15.6609 23.9812 16.9406 23.925C18.2156 23.8687 19.0922 23.6625 19.8516 23.3672C20.6391 23.0625 21.3094 22.65 21.975 21.9844C22.6406 21.3188 23.0531 20.6484 23.3578 19.8609C23.6531 19.0969 23.8594 18.225 23.9156 16.95C23.9719 15.6703 23.9859 15.2625 23.9859 12.0047C23.9859 8.74688 23.9719 8.33906 23.9156 7.05938C23.8594 5.78438 23.6531 4.90781 23.3578 4.14844C23.0625 3.35156 22.6547 2.68125 21.9844 2.01562C21.3188 1.35 20.6484 0.9375 19.8609 0.632812C19.0969 0.3375 18.225 0.13125 16.95 0.075C15.6656 0.0140625 15.2578 0 12 0Z"/>
		<path d="M12 5.83594C8.59688 5.83594 5.83594 8.59688 5.83594 12C5.83594 15.4031 8.59688 18.1641 12 18.1641C15.4031 18.1641 18.1641 15.4031 18.1641 12C18.1641 8.59688 15.4031 5.83594 12 5.83594ZM12 15.9984C9.79219 15.9984 8.00156 14.2078 8.00156 12C8.00156 9.79219 9.79219 8.00156 12 8.00156C14.2078 8.00156 15.9984 9.79219 15.9984 12C15.9984 14.2078 14.2078 15.9984 12 15.9984Z"/>
		<path d="M19.8469 5.59214C19.8469 6.38902 19.2 7.0312 18.4078 7.0312C17.6109 7.0312 16.9688 6.38433 16.9688 5.59214C16.9688 4.79526 17.6156 4.15308 18.4078 4.15308C19.2 4.15308 19.8469 4.79995 19.8469 5.59214Z"/>
	</symbol>
	<symbol viewBox="0 0 24 24" stroke="none" id="linkedin" xmlns="http://www.w3.org/2000/svg">
		<path d="M22.2234 0H1.77187C0.792187 0 0 0.773438 0 1.72969V22.2656C0 23.2219 0.792187 24 1.77187 24H22.2234C23.2031 24 24 23.2219 24 22.2703V1.72969C24 0.773438 23.2031 0 22.2234 0ZM7.12031 20.4516H3.55781V8.99531H7.12031V20.4516ZM5.33906 7.43438C4.19531 7.43438 3.27188 6.51094 3.27188 5.37187C3.27188 4.23281 4.19531 3.30937 5.33906 3.30937C6.47813 3.30937 7.40156 4.23281 7.40156 5.37187C7.40156 6.50625 6.47813 7.43438 5.33906 7.43438ZM20.4516 20.4516H16.8937V14.8828C16.8937 13.5562 16.8703 11.8453 15.0422 11.8453C13.1906 11.8453 12.9094 13.2937 12.9094 14.7891V20.4516H9.35625V8.99531H12.7687V10.5609H12.8156C13.2891 9.66094 14.4516 8.70938 16.1813 8.70938C19.7859 8.70938 20.4516 11.0813 20.4516 14.1656V20.4516Z"/>
	</symbol>
	<symbol viewBox="0 0 24 24" stroke="none" id="github" xmlns="http://www.w3.org/2000/svg">
		<path fill-rule="evenodd" clip-rule="evenodd" d="M12 0C5.37 0 0 5.37 0 12C0 17.31 3.435 21.795 8.205 23.385C8.805 23.49 9.03 23.13 9.03 22.815C9.03 22.53 9.015 21.585 9.015 20.58C6 21.135 5.22 19.845 4.98 19.17C4.845 18.825 4.26 17.76 3.75 17.475C3.33 17.25 2.73 16.695 3.735 16.68C4.68 16.665 5.355 17.55 5.58 17.91C6.66 19.725 8.385 19.215 9.075 18.9C9.18 18.12 9.495 17.595 9.84 17.295C7.17 16.995 4.38 15.96 4.38 11.37C4.38 10.065 4.845 8.985 5.61 8.145C5.49 7.845 5.07 6.615 5.73 4.965C5.73 4.965 6.735 4.65 9.03 6.195C9.99 5.925 11.01 5.79 12.03 5.79C13.05 5.79 14.07 5.925 15.03 6.195C17.325 4.635 18.33 4.965 18.33 4.965C18.99 6.615 18.57 7.845 18.45 8.145C19.215 8.985 19.68 10.05 19.68 11.37C19.68 15.975 16.875 16.995 14.205 17.295C14.64 17.67 15.015 18.39 15.015 19.515C15.015 21.12 15 22.41 15 22.815C15 23.13 15.225 23.505 15.825 23.385C18.2072 22.5807 20.2772 21.0497 21.7437 19.0074C23.2101 16.965 23.9993 14.5143 24 12C24 5.37 18.63 0 12 0Z"/>
	</symbol>
	<symbol viewBox="0 0 24 24" stroke="none" id="upwork" xmlns="http://www.w3.org/2000/svg">
		<path fill-rule="evenodd" clip-rule="evenodd" d="M12 24C18.6274 24 24 18.6274 24 12C24 5.37258 18.6274 0 12 0C5.37258 0 0 5.37258 0 12C0 18.6274 5.37258 24 12 24ZM14.6153 13.4473C15.3195 14.0279 16.0942 14.3847 16.9207 14.3847C17.4582 14.3841 17.9734 14.1665 18.3536 13.7795C18.7337 13.3925 18.9478 12.8678 18.9487 12.3204C18.9484 11.7728 18.7346 11.2478 18.3545 10.8606C17.9744 10.4735 17.459 10.2558 16.9215 10.2553C15.429 10.2553 14.9475 11.7199 14.7922 12.5931L14.7863 12.6252L14.6153 13.4473ZM12.9383 11.5014C13.5382 9.42566 15.0165 8.16584 16.9207 8.16584C19.1707 8.16584 21 10.0292 21 12.3212C21 14.6116 19.1707 16.4849 16.9207 16.4849C15.87 16.4849 14.9535 16.1564 14.1562 15.6376L13.2465 20H11.1488L12.4035 13.9851C11.8095 13.2273 11.3197 12.3701 10.923 11.5243V12.4335C10.923 14.6597 9.1455 16.4849 6.96075 16.4849C4.7775 16.4849 3 14.6597 3 12.4335V7H5.052V12.4335C5.0524 12.9492 5.25355 13.4438 5.61136 13.8087C5.96917 14.1736 6.45443 14.3791 6.96075 14.3801C7.46727 14.3793 7.9528 14.1739 8.31089 13.809C8.66898 13.4441 8.87041 12.9494 8.871 12.4335V7H10.923C11.3273 8.41796 12.0233 10.1003 12.9383 11.5014Z"/>
	</symbol>
	<symbol viewBox="0 0 28 28" id="swipe-area-pointer" xmlns="http://www.w3.org/2000/svg">
		<path d="M27.9178 16.9001C27.8856 16.1812 27.6735 15.4641 27.4683 14.7704L27.4434 14.6862C27.344 14.3475 27.169 14.0362 26.9318 13.7762C26.6944 13.5161 26.4011 13.3141 26.0743 13.1857C25.0614 12.7567 24.1105 12.8958 23.2461 13.5987C22.8475 12.683 22.1963 12.0975 21.3091 11.8581C20.2691 11.5776 19.4241 11.8011 18.7956 12.5232C17.7296 11.05 16.9415 10.8955 15.2565 11.8329C15.2378 11.5524 15.2198 11.2733 15.2029 10.9957C15.1591 10.3002 15.1153 9.58099 15.0456 8.87865C14.9081 7.48334 14.7516 5.98525 14.5389 4.46746C14.4158 3.65625 14.0925 2.88903 13.5985 2.23617C13.0148 1.44012 12.2085 1.26505 11.3261 1.74283C11.0611 1.88092 10.828 2.07355 10.6418 2.30825C10.4556 2.54294 10.3204 2.81443 10.2453 3.10507C10.1326 3.49636 10.0637 3.89907 10.0398 4.30576C10.0276 4.57071 10.0149 4.83562 10.0019 5.10048C9.93824 6.41926 9.87232 7.78284 9.87348 9.1248C9.87466 10.7563 9.91216 12.355 9.95187 14.0477C9.96732 14.7048 9.98188 15.3672 9.9956 16.0347C9.98495 16.025 9.97461 16.0156 9.96454 16.0062C9.8872 15.9329 9.80618 15.8638 9.72185 15.7989C8.21026 14.6826 6.60252 14.2944 4.94297 14.6444C4.59999 14.7106 4.27853 14.8608 4.00694 15.0817C3.73537 15.3027 3.52205 15.5875 3.38588 15.9112C3.24786 16.2493 3.1947 16.6165 3.23111 16.9803C3.26753 17.344 3.39237 17.6931 3.59464 17.9968C3.85285 18.3744 4.16232 18.714 4.51398 19.0054C5.66655 19.994 6.61764 21.1983 7.31461 22.5515C8.16429 24.211 9.12406 25.959 10.4257 28.2157C10.7355 28.7114 11.1316 29.1471 11.595 29.5016C12.5245 30.238 13.5681 30.8158 14.6839 31.2116C15.713 31.6012 16.8036 31.8006 17.9033 31.8004C19.1978 31.7852 20.4797 31.5437 21.692 31.087C22.5898 30.7491 23.4215 30.2548 24.149 29.6269C25.4667 28.5292 26.3849 27.029 26.9563 25.0406C27.7173 22.3984 28.0421 19.6482 27.9178 16.9001ZM11.3704 17.8272C11.3413 16.075 11.3026 14.2248 11.2577 12.3282C11.2485 11.938 11.2313 11.5416 11.2139 11.1583C11.1837 10.456 11.1522 9.72992 11.1684 9.01802C11.2033 7.48482 11.2927 5.92664 11.3792 4.41973L11.4045 3.98028C11.4386 3.3806 11.5724 2.8031 12.308 2.63024C12.7785 2.93999 13.0697 3.44993 13.1982 4.18709C13.3912 5.2955 13.527 6.41324 13.6052 7.53579C13.7063 9.00186 13.7824 10.4948 13.8561 11.9384C13.8937 12.6763 13.9325 13.4142 13.9728 14.152C13.9983 14.612 14.1843 14.8777 14.5407 14.9645C14.9007 15.0526 15.1973 14.859 15.4216 14.3899L15.5222 14.1786C15.7301 13.741 15.9453 13.2885 16.1895 12.8646C16.3368 12.6088 16.6037 12.3224 17.0431 12.4109C17.2274 12.4464 17.3954 12.541 17.5217 12.6806C17.6481 12.8201 17.7262 12.9971 17.7443 13.1851C17.8182 13.6495 17.8549 14.1192 17.8541 14.5895C17.8565 15.2325 17.9396 15.5476 18.4053 15.5988C18.8619 15.6488 19.02 15.3785 19.2002 14.7521C19.3249 14.2742 19.4988 13.8108 19.7191 13.3693C20.0012 12.8429 20.337 12.7252 20.9584 12.9357C21.5713 13.1434 21.9382 13.5536 22.0463 14.1548C22.1014 14.5071 22.134 14.8625 22.1439 15.2191C22.1483 15.3104 22.1532 15.4014 22.1585 15.4922C22.1779 15.836 22.2563 16.2037 22.6912 16.3238C23.1258 16.4439 23.3624 16.1704 23.552 15.8567C23.6067 15.7664 23.6601 15.6749 23.7136 15.5833C23.8655 15.3061 24.0398 15.0422 24.2348 14.7939C24.5425 14.4247 24.8955 14.2446 25.2283 14.2869C25.5612 14.3292 25.8586 14.5921 26.0656 15.027C26.591 16.1298 26.7817 17.4043 26.6337 18.8155C26.4843 20.2419 26.267 21.7554 25.9505 23.5784C25.7006 24.9065 25.1536 26.1601 24.351 27.2439C23.5689 28.3357 22.4206 29.1057 20.84 29.5976C17.9586 30.4936 15.2667 30.0124 12.6101 28.1253C12.3292 27.9324 12.0839 27.6917 11.8852 27.4139C11.4442 26.7784 11.038 26.1189 10.6686 25.4387C10.065 24.3064 9.47425 23.1329 8.91274 21.9499C8.02264 20.0764 6.88558 18.6012 5.43573 17.4409C5.19 17.2434 4.98299 17.0015 4.82532 16.7275C4.78099 16.6579 4.75197 16.5796 4.74012 16.4978C4.72825 16.416 4.73392 16.3327 4.75664 16.2533C4.79206 16.1633 4.84577 16.0817 4.91432 16.0137C4.98288 15.9459 5.06476 15.8932 5.15474 15.8589C5.4406 15.7298 5.75059 15.6636 6.06394 15.6648C6.23419 15.6654 6.40401 15.6824 6.57104 15.7156C7.92809 15.978 8.78431 16.4776 9.3483 17.3352C9.51289 17.6167 9.63893 17.9193 9.72301 18.2347C9.75 18.3202 9.77719 18.4056 9.80551 18.4896C9.9167 18.8187 10.0902 19.1555 10.5328 19.1586H10.5392C10.9146 19.1586 11.1872 18.9236 11.2874 18.5132C11.3443 18.2891 11.3723 18.0585 11.3709 17.8272H11.3704Z" stroke="none"/>
		<path d="M7.5 3.5H1M1 3.5L3.5 1M1 3.5L3.5 6" fill="none"/>
		<path d="M17 3.5L23.5 3.5M23.5 3.5L21 6M23.5 3.5L21 1" fill="none"/>
	</symbol>
	<symbol viewBox="0 0 32 28" id="download" xmlns="http://www.w3.org/2000/svg">
		<path d="M23 8C26.045 8.01569 27.6942 8.14256 28.7694 9.14702C30 10.2967 30 12.146 30 15.8447V17.1526C30 20.8527 30 22.702 28.7694 23.8517C27.5402 25 25.5592 25 21.6 25H10.4C6.4408 25 4.4598 25 3.2306 23.8517C2 22.7007 2 20.8527 2 17.1526V15.8447C2 12.146 2 10.2967 3.2306 9.14702C4.3058 8.14256 5.955 8.01569 9 8" fill="none" stroke-width="1.8" stroke-linecap="round"/>
		<path d="M16 2.6665V19.9998M16 19.9998L12 15.3332M16 19.9998L20 15.3332" fill="none" stroke-width="1.8" stroke-linecap="round" stroke-linejoin="round"/>
	</symbol>
	<symbol viewBox="0 0 30 29" id="star" xmlns="http://www.w3.org/2000/svg">
		<path d="M14.0446 1.09181C14.335 0.152132 15.665 0.152135 15.9554 1.09181L18.7771 10.2229H28.0437C29.0002 10.2229 29.4109 11.4369 28.6508 12.0176L21.1115 17.7771L23.9648 27.0108C24.2523 27.941 23.176 28.6918 22.4024 28.1007L15 22.4458L7.59765 28.1007C6.82396 28.6918 5.74771 27.941 6.03516 27.0108L8.88854 17.7771L1.34924 12.0176C0.589122 11.4369 0.999762 10.2229 1.9563 10.2229H11.2229L14.0446 1.09181Z"/>
	</symbol>
	<symbol viewBox="0 0 24 24" id="rocket" fill="none" xmlns="http://www.w3.org/2000/svg">
		<path d="M22.8841 1.29808C22.8751 1.25464 22.8539 1.21468 22.823 1.18289C22.7921 1.15111 22.7527 1.12882 22.7096 1.11865C19.8336 0.414688 13.1901 2.92302 9.58696 6.52646C8.9448 7.16387 8.35926 7.85597 7.83696 8.59495C6.72635 8.49438 5.61574 8.57907 4.67014 8.99192C1.99992 10.167 1.22302 13.2358 1.00619 14.5532C0.994443 14.6254 0.999461 14.6993 1.02086 14.7693C1.04225 14.8392 1.07945 14.9033 1.12957 14.9565C1.17968 15.0097 1.24137 15.0507 1.30986 15.0762C1.37834 15.1017 1.45178 15.1111 1.52447 15.1037L5.81195 14.6326C5.81492 14.9563 5.83433 15.2796 5.87013 15.6012C5.8925 15.8236 5.99162 16.0311 6.15042 16.1882L7.81052 17.8497C7.9676 18.0087 8.17521 18.1079 8.39755 18.1302C8.71703 18.1659 9.03811 18.1853 9.35955 18.1884L8.88939 22.4757C8.88205 22.5484 8.8915 22.6218 8.91702 22.6902C8.94253 22.7586 8.98343 22.8203 9.03654 22.8703C9.08965 22.9204 9.15356 22.9576 9.22332 22.979C9.29309 23.0005 9.36684 23.0056 9.43888 22.9939C10.7557 22.7822 13.8284 22.0046 14.9956 19.3328C15.4081 18.3853 15.4927 17.2796 15.3976 16.1734C16.1381 15.6512 16.8316 15.0651 17.4702 14.422C21.0865 10.8228 23.5769 4.31983 22.8841 1.29808ZM14.2557 9.7594C13.9399 9.44334 13.7247 9.04063 13.6376 8.6022C13.5504 8.16377 13.5951 7.70932 13.766 7.29631C13.9369 6.8833 14.2263 6.53029 14.5977 6.28193C14.9691 6.03356 15.4057 5.901 15.8524 5.901C16.299 5.901 16.7357 6.03356 17.107 6.28193C17.4784 6.53029 17.7679 6.8833 17.9388 7.29631C18.1097 7.70932 18.1544 8.16377 18.0672 8.6022C17.98 9.04063 17.7649 9.44334 17.449 9.7594C17.2395 9.96953 16.9906 10.1362 16.7167 10.25C16.4427 10.3637 16.149 10.4223 15.8524 10.4223C15.5558 10.4223 15.2621 10.3637 14.9881 10.25C14.7141 10.1362 14.4653 9.96953 14.2557 9.7594Z" stroke-width="1.5" stroke-linecap="round" stroke-linejoin="round"/>
		<path d="M3.90167 17C3.4863 17.0637 3.09987 17.2991 2.80375 17.6687C2.06958 18.5896 2 22 2 22C2 22 4.73 21.913 5.46458 20.9943C5.76149 20.6247 5.95011 20.1409 6 19.6208" stroke-width="1.5" stroke-linecap="round" stroke-linejoin="round"/>
	</symbol>
	<symbol viewBox="0 0 22 22" id="watsapp" stroke="none" xmlns="http://www.w3.org/2000/svg">
		<path d="M18.794 3.20106C17.7804 2.18238 16.5732 1.3747 15.2426 0.825119C13.9121 0.275542 12.4849 -0.00492811 11.0442 6.55264e-05C5.00804 6.55264e-05 0.0884424 4.89505 0.0884424 10.901C0.0884424 12.826 0.596985 14.696 1.54774 16.346L0 22L5.80402 20.482C7.40703 21.351 9.20904 21.813 11.0442 21.813C17.0804 21.813 22 16.918 22 10.912C22 7.99704 20.8613 5.25805 18.794 3.20106ZM11.0442 19.965C9.40804 19.965 7.80502 19.525 6.401 18.7L6.06935 18.502L2.6201 19.404L3.53769 16.06L3.31658 15.719C2.40756 14.2747 1.92488 12.6052 1.92362 10.901C1.92362 5.90705 6.01407 1.83706 11.0332 1.83706C13.4653 1.83706 15.7538 2.78306 17.4673 4.49905C18.3158 5.33941 18.9882 6.33898 19.4456 7.43981C19.9029 8.54065 20.1361 9.72086 20.1317 10.912C20.1538 15.906 16.0633 19.965 11.0442 19.965ZM16.0412 13.189C15.7648 13.057 14.4161 12.397 14.1729 12.298C13.9186 12.21 13.7417 12.166 13.5538 12.43C13.3658 12.705 12.8462 13.321 12.6915 13.497C12.5367 13.684 12.3709 13.706 12.0945 13.563C11.8181 13.431 10.9337 13.134 9.89447 12.21C9.07638 11.484 8.53467 10.593 8.36884 10.318C8.21407 10.043 8.34673 9.90004 8.49045 9.75704C8.61206 9.63604 8.76683 9.43804 8.8995 9.28404C9.03216 9.13004 9.08744 9.00904 9.17588 8.83304C9.26432 8.64604 9.2201 8.49204 9.15377 8.36004C9.08744 8.22804 8.53467 6.88605 8.31357 6.33605C8.09246 5.80805 7.8603 5.87405 7.69447 5.86305H7.16382C6.97588 5.86305 6.68844 5.92905 6.43417 6.20405C6.19095 6.47905 5.48342 7.13904 5.48342 8.48104C5.48342 9.82304 6.46734 11.121 6.6 11.297C6.73266 11.484 8.53467 14.234 11.2764 15.411C11.9286 15.697 12.4372 15.862 12.8352 15.983C13.4874 16.192 14.0844 16.159 14.5598 16.093C15.0905 16.016 16.1849 15.433 16.406 14.795C16.6382 14.157 16.6382 13.618 16.5608 13.497C16.4834 13.376 16.3176 13.321 16.0412 13.189Z"/>
	</symbol>
</svg>