<svg width="80" height="80" viewBox="0 0 80 80" fill="none" xmlns="http://www.w3.org/2000/svg">
<g clip-path="url(#clip0_1748_4383)">
<path d="M14.1667 6.44812e-06H65.8333C67.6942 -0.00179242 69.5372 0.372807 71.2568 1.10237C72.9763 1.83193 74.5387 2.90212 75.8546 4.25171C77.1704 5.60129 78.2139 7.20377 78.9252 8.96743C79.6365 10.7311 80.0018 12.6213 80 14.5299V65.4701C80.0018 67.3787 79.6365 69.2689 78.9252 71.0326C78.2139 72.7962 77.1704 74.3987 75.8546 75.7483C74.5387 77.0979 72.9763 78.1681 71.2568 78.8976C69.5372 79.6272 67.6942 80.0018 65.8333 80H14.1667C12.3058 80.0018 10.4628 79.6272 8.74325 78.8976C7.02368 78.1681 5.46126 77.0979 4.14541 75.7483C2.82957 74.3987 1.78613 72.7962 1.07481 71.0326C0.363487 69.2689 -0.00174761 67.3787 6.28692e-06 65.4701V14.5299C-0.00174761 12.6213 0.363487 10.7311 1.07481 8.96743C1.78613 7.20377 2.82957 5.60129 4.14541 4.25171C5.46126 2.90212 7.02368 1.83193 8.74325 1.10237C10.4628 0.372807 12.3058 -0.00179242 14.1667 6.44812e-06Z" fill="#330000"/>
<path d="M38.7668 48.0004H26.3668L23.8335 56.0346C23.8051 56.181 23.7245 56.3113 23.6073 56.3999C23.4901 56.4884 23.3449 56.5288 23.2001 56.5132H16.9335C16.5668 56.5132 16.4668 56.3081 16.5668 55.8978L27.3001 24.2055C27.4001 23.8636 27.5001 23.4876 27.6335 23.0773C27.7676 22.3446 27.8346 21.6006 27.8335 20.8551C27.8235 20.7694 27.8454 20.6831 27.8949 20.6134C27.9443 20.5436 28.0176 20.4956 28.1001 20.479H36.7335C37.0001 20.479 37.1335 20.5816 37.1668 20.7525L49.3335 55.9662C49.4335 56.3423 49.3335 56.5132 49.0001 56.5132H42.0335C41.9156 56.5248 41.7976 56.4935 41.7 56.4247C41.6025 56.356 41.5317 56.2541 41.5001 56.1371L38.7668 48.0004ZM28.3001 41.0602H36.7668C36.5668 40.3423 36.3001 39.4876 36.0001 38.5987C35.7001 37.7098 35.4001 36.6841 35.1001 35.6585C34.8001 34.6329 34.4668 33.573 34.1335 32.5132C33.8001 31.4534 33.5001 30.4619 33.2335 29.4705C32.9668 28.479 32.7335 27.6243 32.5001 26.8038H32.4335C32.1339 28.2939 31.7556 29.7661 31.3001 31.214C30.8001 32.8551 30.3001 34.5645 29.7668 36.2739C29.3001 38.0175 28.8001 39.6243 28.3001 41.0602Z" fill="#FF9A00"/>
<path d="M56.6005 26.325C56.0534 26.3373 55.5093 26.2378 55 26.0324C54.4907 25.8269 54.0263 25.5197 53.6339 25.1284C52.8702 24.272 52.4634 23.1431 52.5005 21.9831C52.4809 21.4179 52.5776 20.8548 52.7843 20.3305C52.9911 19.8063 53.3033 19.3326 53.7006 18.9404C54.5018 18.1637 55.5648 17.7349 56.6672 17.7438C57.9672 17.7438 58.9672 18.154 59.7006 18.9404C60.439 19.7693 60.8336 20.8607 60.8005 21.9831C60.8209 22.5607 60.7281 23.1367 60.5277 23.6769C60.3273 24.2171 60.0234 24.7107 59.6339 25.1284C59.2411 25.5387 58.7671 25.8579 58.2438 26.0643C57.7205 26.2707 57.1602 26.3596 56.6005 26.325ZM52.8672 56.0002V29.6754C52.8672 29.3335 53.0005 29.1968 53.3005 29.1968H59.9005C60.2005 29.1968 60.3339 29.3677 60.3339 29.6754V56.0002C60.3339 56.3763 60.2005 56.5472 59.9005 56.5472H53.3672C53.2972 56.5531 53.2267 56.5427 53.1611 56.5168C53.0955 56.4909 53.0365 56.4501 52.9884 56.3975C52.9403 56.345 52.9045 56.2819 52.8835 56.2131C52.8625 56.1443 52.8569 56.0715 52.8672 56.0002Z" fill="#FF9A00"/>
</g>
<defs>
<clipPath id="clip0_1748_4383">
<rect width="80" height="80" fill="white"/>
</clipPath>
</defs>
</svg>
