<svg width="80" height="80" viewBox="0 0 80 80" fill="none" xmlns="http://www.w3.org/2000/svg">
<g clip-path="url(#clip0_1748_4380)">
<path d="M14.1667 6.44812e-06H65.8333C67.6942 -0.00179242 69.5372 0.372807 71.2568 1.10237C72.9763 1.83193 74.5387 2.90212 75.8546 4.25171C77.1704 5.60129 78.2139 7.20377 78.9252 8.96743C79.6365 10.7311 80.0018 12.6213 80 14.5299V65.4701C80.0018 67.3787 79.6365 69.2689 78.9252 71.0326C78.2139 72.7962 77.1704 74.3987 75.8546 75.7483C74.5387 77.0979 72.9763 78.1681 71.2568 78.8976C69.5372 79.6272 67.6942 80.0018 65.8333 80H14.1667C12.3058 80.0018 10.4628 79.6272 8.74325 78.8976C7.02368 78.1681 5.46126 77.0979 4.14541 75.7483C2.82957 74.3987 1.78613 72.7962 1.07481 71.0326C0.363487 69.2689 -0.00174761 67.3787 6.28692e-06 65.4701V14.5299C-0.00174761 12.6213 0.363487 10.7311 1.07481 8.96743C1.78613 7.20377 2.82957 5.60129 4.14541 4.25171C5.46126 2.90212 7.02368 1.83193 8.74325 1.10237C10.4628 0.372807 12.3058 -0.00179242 14.1667 6.44812e-06Z" fill="#470137"/>
<path d="M42.0669 21.0256L32.0669 37.9487L42.7336 55.8974C42.8038 56.0213 42.8275 56.1672 42.8003 56.3077C42.7669 56.4444 42.6336 56.3419 42.4336 56.3761H34.8003C34.2669 56.3761 33.9003 56.3419 33.6669 56C32.9669 54.5641 32.2336 53.1624 31.5336 51.7265C30.8336 50.2906 30.0669 48.8889 29.2669 47.4188C28.4669 45.9487 27.6669 44.4786 26.8669 42.9744H26.8003C26.1003 44.4444 25.3336 45.9145 24.5669 47.3846C23.8003 48.8547 23.0336 50.3248 22.3003 51.7607C21.5669 53.1966 20.7669 54.6667 20.0003 56.0684C19.8669 56.4103 19.6003 56.4444 19.2336 56.4444H11.9003C11.7669 56.4444 11.6669 56.5128 11.6669 56.3419C11.6521 56.2779 11.6503 56.2114 11.6618 56.1467C11.6732 56.0819 11.6977 56.0203 11.7336 55.9658L22.1003 38.5299L12.0003 20.9914C11.9003 20.8547 11.8669 20.7179 11.9336 20.6496C11.9742 20.6008 12.0258 20.5629 12.0838 20.5391C12.1419 20.5153 12.2047 20.5063 12.2669 20.5128H19.8336C19.9913 20.5163 20.1479 20.5393 20.3003 20.5812C20.4338 20.6549 20.5481 20.7604 20.6336 20.8889C21.2669 22.359 22.0003 23.8291 22.7669 25.2991C23.5336 26.7692 24.3336 28.2051 25.1669 29.641C26.0003 31.0769 26.7003 32.5128 27.4003 33.9829H27.4669C28.1669 32.4786 28.9003 31.0085 29.6336 29.5726C30.3669 28.1367 31.1336 26.7008 31.9003 25.265C32.6669 23.8291 33.4003 22.359 34.1336 20.9573C34.1589 20.8227 34.2297 20.7016 34.3336 20.6154C34.4656 20.5407 34.6191 20.5165 34.7669 20.547H41.8003C41.8397 20.5379 41.8804 20.5369 41.9202 20.5441C41.96 20.5512 41.998 20.5663 42.0321 20.5885C42.0661 20.6108 42.0956 20.6397 42.1187 20.6736C42.1419 20.7076 42.1583 20.7459 42.1669 20.7863C42.2003 20.8205 42.1336 20.9573 42.0669 21.0256Z" fill="#FF61F6"/>
<path d="M57.4672 57.094C54.9964 57.1356 52.5477 56.6099 50.3006 55.5555C48.2098 54.5528 46.4576 52.9341 45.2672 50.9059C44.0339 48.8205 43.4339 46.2222 43.4339 43.1111C43.4001 40.581 44.0336 38.0886 45.2672 35.8974C46.5322 33.6704 48.3644 31.8385 50.5672 30.5983C52.9006 29.2649 55.7006 28.6153 59.0006 28.6153C59.2344 28.6126 59.4681 28.6241 59.7006 28.6495C60.0006 28.6837 60.3339 28.6837 60.7339 28.7179V17.9145C60.7339 17.6752 60.8339 17.5384 61.0672 17.5384H67.8339C67.9086 17.5281 67.9844 17.5469 68.0462 17.5913C68.1079 17.6356 68.1512 17.7022 68.1672 17.7777V50.3931C68.1672 51.0085 68.2006 51.6923 68.2339 52.4444C68.2672 53.1965 68.3339 53.8461 68.3672 54.4273C68.3743 54.5428 68.346 54.6576 68.2862 54.7557C68.2264 54.8538 68.1382 54.9303 68.0339 54.9743C66.2879 55.7269 64.4656 56.2773 62.6006 56.6153C60.9064 56.9287 59.1887 57.0889 57.4672 57.094ZM60.7339 50.2564V35.2136C60.4371 35.1402 60.1367 35.0831 59.8339 35.0427C59.4672 35.0085 59.1006 34.9743 58.7339 34.9743C57.4273 34.9592 56.136 35.2639 54.9672 35.8632C53.8282 36.4453 52.8529 37.3161 52.1339 38.3931C51.4006 39.4871 51.0339 40.9572 51.0339 42.735C51.0049 43.9349 51.1971 45.1297 51.6006 46.2564C51.923 47.1675 52.4348 47.9958 53.1006 48.6837C53.7432 49.3127 54.519 49.7808 55.3672 50.0512C56.2601 50.3512 57.1944 50.5013 58.1339 50.4957C58.6339 50.4957 59.1006 50.4615 59.5339 50.4273C59.9412 50.4571 60.35 50.3989 60.7339 50.2564Z" fill="#FF61F6"/>
</g>
<defs>
<clipPath id="clip0_1748_4380">
<rect width="80" height="80" fill="white"/>
</clipPath>
</defs>
</svg>
