<svg width="44" height="44" viewBox="0 0 44 44" fill="none" xmlns="http://www.w3.org/2000/svg">
<path d="M30.5866 42.653L8.30745 36.6823L8.30737 36.6823C0.982842 34.72 -1.47017 25.5654 3.89226 20.203L20.203 3.89226L20.2031 3.89213C25.5632 -1.47001 34.72 0.982731 36.6823 8.30737L36.6823 8.30742L42.653 30.5888L43.6189 30.33L42.653 30.5888C44.6152 37.911 37.9115 44.6154 30.5866 42.653ZM30.5866 42.653L30.3277 43.6189L30.5866 42.653Z" fill="white" stroke="#81D936" stroke-width="2"/>
<path d="M33.4286 14H14.5714C13.7036 14 13 14.7611 13 15.7V29.3C13 30.2389 13.7036 31 14.5714 31H33.4286C34.2964 31 35 30.2389 35 29.3V15.7C35 14.7611 34.2964 14 33.4286 14Z" fill="#93D25D"/>
<path d="M33.4286 14H14.5714C13.7036 14 13 14.7611 13 15.7V29.3C13 30.2389 13.7036 31 14.5714 31H33.4286C34.2964 31 35 30.2389 35 29.3V15.7C35 14.7611 34.2964 14 33.4286 14Z" stroke="#202020" stroke-width="1.5" stroke-linejoin="round"/>
<path d="M27 34L26.5 31H21.5L21 34H27Z" fill="#202020" stroke="#202020" stroke-width="1.5" stroke-linecap="round" stroke-linejoin="round"/>
<path d="M30 34H18" stroke="#202020" stroke-width="1.5" stroke-linecap="round" stroke-linejoin="round"/>
<path d="M13 27V29.4C13.0012 29.824 13.1671 30.2303 13.4615 30.5301C13.756 30.8299 14.155 30.9988 14.5714 31H33.4286C33.845 30.9988 34.244 30.8299 34.5385 30.5301C34.8329 30.2303 34.9988 29.824 35 29.4V27H13ZM24 30.2C23.8446 30.2 23.6927 30.1531 23.5635 30.0652C23.4343 29.9773 23.3336 29.8523 23.2741 29.7061C23.2146 29.56 23.1991 29.3991 23.2294 29.2439C23.2597 29.0887 23.3345 28.9462 23.4444 28.8343C23.5543 28.7224 23.6943 28.6462 23.8467 28.6154C23.9991 28.5845 24.1571 28.6003 24.3007 28.6609C24.4442 28.7214 24.567 28.824 24.6533 28.9555C24.7396 29.0871 24.7857 29.2418 24.7857 29.4C24.7857 29.6122 24.7029 29.8157 24.5556 29.9657C24.4082 30.1157 24.2084 30.2 24 30.2Z" fill="#202020"/>
</svg>
