<svg width="44" height="44" viewBox="0 0 44 44" fill="none" xmlns="http://www.w3.org/2000/svg">
<path d="M30.5866 42.653L8.30745 36.6823L8.30737 36.6823C0.982842 34.72 -1.47017 25.5654 3.89226 20.203L20.203 3.89226L20.2031 3.89213C25.5632 -1.47001 34.72 0.982731 36.6823 8.30737L36.6823 8.30742L42.653 30.5888L43.6189 30.33L42.653 30.5888C44.6152 37.911 37.9115 44.6154 30.5866 42.653ZM30.5866 42.653L30.3277 43.6189L30.5866 42.653Z" fill="white" stroke="#81D936" stroke-width="2"/>
<g clip-path="url(#clip0_2077_6235)">
<path d="M28.0714 27.9086C27.8954 26.4503 27.2605 25.1806 26.3554 24.2817C25.4565 23.3829 24.2811 22.8423 23.0177 22.8423H16.3737C13.8343 22.8423 11.6783 25.0046 11.32 27.9086L11.0371 30.2092H28.348L28.0714 27.9086Z" fill="#93D25D"/>
<path d="M19.6992 21.6794C18.3981 21.6794 17.2226 21.1514 16.3678 20.2966C15.5129 19.4417 14.9912 18.2663 14.9912 16.9652C14.9912 14.3629 17.1032 12.2572 19.6992 12.2572C21.0004 12.2572 22.1758 12.7852 23.0306 13.64C23.8855 14.4949 24.4072 15.6703 24.4072 16.9714C24.4072 19.5674 22.2952 21.6794 19.6992 21.6794Z" fill="#93D25D"/>
<path d="M28.692 32.1821C26.9018 32.1821 25.2252 31.4694 23.9607 30.1748C22.6962 28.8802 22 27.1638 22 25.3311C22 23.4983 22.6962 21.7819 23.9607 20.4873C25.2252 19.1927 26.9018 18.48 28.692 18.48C30.4822 18.48 32.1588 19.1927 33.4233 20.4873C34.6878 21.7819 35.384 23.4983 35.384 25.3311C35.384 27.1638 34.6878 28.8802 33.4233 30.1748C32.1588 31.4694 30.4822 32.1821 28.692 32.1821ZM28.692 19.2073C27.0936 19.2073 25.5946 19.8473 24.4651 21.0037C23.3356 22.1601 22.7104 23.6947 22.7104 25.3311C22.7104 26.9675 23.3356 28.5021 24.4651 29.6584C25.5946 30.8148 27.0936 31.4548 28.692 31.4548C30.2904 31.4548 31.7894 30.8148 32.9189 29.6584C34.0485 28.5021 34.6736 26.9675 34.6736 25.3311C34.6736 23.6947 34.0485 22.1601 32.9189 21.0037C31.7965 19.84 30.2904 19.2073 28.692 19.2073Z" fill="#202020" stroke="#202020" stroke-width="0.4"/>
<path d="M35.5399 32.6986C35.4475 32.6986 35.3552 32.6622 35.2913 32.5895L33.0109 30.2549C32.8688 30.1094 32.8688 29.8839 33.0109 29.7385C33.1529 29.593 33.3732 29.593 33.5152 29.7385L35.7956 32.0731C35.9377 32.2185 35.9377 32.444 35.7956 32.5895C35.7175 32.6622 35.6251 32.6986 35.5399 32.6986Z" fill="#202020"/>
<path d="M38.5453 36.6331C38.2399 36.6331 37.9344 36.5168 37.7071 36.2768L34.695 33.1931C34.2332 32.7203 34.2332 31.9494 34.695 31.4694C35.1567 30.9967 35.9097 30.9967 36.3786 31.4694L39.3907 34.5531C39.8525 35.0258 39.8525 35.7968 39.3907 36.2768C39.1563 36.5168 38.8508 36.6331 38.5453 36.6331Z" fill="#202020"/>
</g>
<defs>
<clipPath id="clip0_2077_6235">
<rect width="29.0463" height="24.6903" fill="white" transform="translate(10.6855 11.9429)"/>
</clipPath>
</defs>
</svg>
