<svg width="44" height="44" viewBox="0 0 44 44" fill="none" xmlns="http://www.w3.org/2000/svg">
<path d="M30.5866 42.653L8.30745 36.6823L8.30737 36.6823C0.982842 34.72 -1.47017 25.5654 3.89226 20.203L20.203 3.89226L20.2031 3.89213C25.5632 -1.47001 34.72 0.982731 36.6823 8.30737L36.6823 8.30742L42.653 30.5888L43.6189 30.33L42.653 30.5888C44.6152 37.911 37.9115 44.6154 30.5866 42.653ZM30.5866 42.653L30.3277 43.6189L30.5866 42.653Z" fill="white" stroke="#81D936" stroke-width="2"/>
<g clip-path="url(#clip0_2077_6199)">
<path d="M28.7616 32.8448C28.7506 32.8388 28.734 32.8329 28.7175 32.8329C28.712 32.8329 28.7065 32.827 28.7009 32.827C28.6954 32.827 28.6954 32.827 28.6954 32.827C28.6899 32.827 28.6844 32.827 28.6844 32.8211C28.6789 32.8211 28.6789 32.8211 28.6789 32.8211C28.6623 32.8151 28.6458 32.8151 28.6292 32.8211H21.4974C21.3375 32.8211 21.2051 32.9455 21.2051 33.0937V36.4309C21.2051 36.4428 21.2051 36.4547 21.2106 36.4724C21.2106 36.4724 21.2106 36.4784 21.2161 36.4784C21.2382 36.6088 21.3595 36.7036 21.5029 36.7036H28.6348C28.7175 36.7036 28.7892 36.674 28.8444 36.6206C28.8995 36.5732 28.9326 36.5021 28.9326 36.4309V33.0937C28.9216 32.987 28.8554 32.8922 28.7616 32.8448Z" fill="#93D25D"/>
<path d="M21.4972 37C21.2269 36.9941 21.0008 36.8103 20.9456 36.5614C20.9456 36.5495 20.9401 36.5436 20.9401 36.5317C20.9401 36.5258 20.9401 36.5258 20.9401 36.5199C20.9401 36.508 20.9346 36.4962 20.9346 36.4784C20.9346 36.4606 20.9346 36.4369 20.9346 36.4251V33.0878C20.9346 32.9397 20.9897 32.8033 21.089 32.6966C21.1938 32.584 21.3482 32.5188 21.5027 32.5188H28.6345C28.6455 32.5188 28.6676 32.5188 28.6897 32.5188C28.7062 32.5188 28.7228 32.5188 28.7448 32.5247C28.7614 32.5247 28.7779 32.5307 28.7945 32.5366H28.8C28.8276 32.5425 28.8551 32.5544 28.8772 32.5662C29.0758 32.6611 29.2081 32.8626 29.2081 33.0819V36.4191C29.2081 36.5792 29.142 36.7333 29.0206 36.84C28.9324 36.9289 28.7669 36.9822 28.6345 36.9882L21.4972 37ZM21.4751 36.4191L28.6235 36.4073L28.6455 33.1175H28.64C28.6345 33.1175 28.6345 33.1175 28.629 33.1175H21.4972L21.4751 36.4191Z" fill="#202020"/>
<path d="M27.3106 31.4162H22.8098C22.512 31.4162 22.2472 31.1791 22.2086 30.8709C21.9328 28.6659 21.1441 26.5794 19.9251 24.8367C19.7706 24.6114 19.6548 24.2558 19.7762 24.0009L24.641 13.5091C24.6962 13.3846 24.823 13.3194 24.9499 13.355C24.9885 13.3668 25.0216 13.3846 25.0547 13.4083C25.0823 13.3846 25.1209 13.3668 25.1595 13.355C25.2864 13.3194 25.4132 13.3906 25.4684 13.5091L30.2891 23.906C30.3994 24.1431 30.427 24.4988 30.2726 24.724C29.004 26.5023 28.1821 28.6421 27.9063 30.9065C27.8732 31.191 27.614 31.4162 27.3106 31.4162ZM24.619 14.8962L20.2726 24.2617C20.2781 24.2676 20.3002 24.3743 20.3719 24.4751C21.646 26.3008 22.4678 28.4821 22.7602 30.7879C22.7602 30.7938 22.7877 30.8176 22.8153 30.8176H27.3162C27.3492 30.8176 27.3658 30.7998 27.3713 30.7939C27.6581 28.4465 28.5131 26.2059 29.8424 24.3447C29.8424 24.3328 29.8424 24.238 29.8037 24.155L25.507 14.8962V24.072C25.9703 24.2676 26.2902 24.7477 26.2902 25.299C26.2902 26.0281 25.7387 26.6149 25.0657 26.6149C24.3928 26.6149 23.8412 26.0222 23.8412 25.299C23.8412 24.7418 24.1612 24.2617 24.6245 24.072V14.8962H24.619ZM25.0602 24.5344C25.0271 24.564 24.983 24.5818 24.9389 24.5877C24.619 24.647 24.3818 24.9493 24.3818 25.299C24.3818 25.6962 24.6852 26.0222 25.0547 26.0222C25.4243 26.0222 25.7276 25.6962 25.7276 25.299C25.7276 24.9493 25.496 24.647 25.1705 24.5877C25.1374 24.5818 25.0988 24.564 25.0602 24.5344Z" fill="#202020" stroke="#202020" stroke-width="0.4"/>
<path d="M34.0239 19.2766C33.897 19.2766 33.7812 19.1759 33.7536 19.0395C32.9483 14.582 29.2914 11.3456 25.0608 11.3456C20.8303 11.3456 17.1733 14.582 16.368 19.0336C16.3405 19.1936 16.1915 19.2944 16.0426 19.2707C15.8937 19.2411 15.7944 19.081 15.822 18.921C16.6824 14.1908 20.571 10.7528 25.0608 10.7528C29.5506 10.7528 33.4392 14.1908 34.2941 18.921C34.3217 19.081 34.2279 19.2351 34.0735 19.2707C34.0625 19.2766 34.0404 19.2766 34.0239 19.2766Z" fill="#202020" stroke="#202020" stroke-width="0.4"/>
<path d="M34.0241 11.3456H16.0981C15.9436 11.3456 15.8223 11.2152 15.8223 11.0492C15.8223 10.8832 15.9436 10.7528 16.0981 10.7528H34.0297C34.1841 10.7528 34.3054 10.8832 34.3054 11.0492C34.2999 11.2152 34.1786 11.3456 34.0241 11.3456Z" fill="#202020" stroke="#202020" stroke-width="0.4"/>
<path d="M35.0004 11.0492C35.0004 11.6301 34.5647 12.0984 34.0241 12.0984C33.4836 12.0984 33.0479 11.6301 33.0479 11.0492C33.0479 10.4683 33.4891 10 34.0241 10C34.5647 10 35.0004 10.4683 35.0004 11.0492Z" fill="#202020"/>
<path d="M16.9526 11.0492C16.9526 11.6301 16.5168 12.0984 15.9763 12.0984C15.4357 12.0984 15 11.6301 15 11.0492C15 10.4683 15.4357 10 15.9763 10C16.5168 10 16.9526 10.4683 16.9526 11.0492Z" fill="#202020"/>
<path d="M35.0004 19.3063C35.0004 19.8872 34.5647 20.3554 34.0241 20.3554C33.4836 20.3554 33.0479 19.8872 33.0479 19.3063C33.0479 18.7254 33.4836 18.2571 34.0241 18.2571C34.5647 18.2571 35.0004 18.7254 35.0004 19.3063Z" fill="#202020"/>
<path d="M16.9526 19.3063C16.9526 19.8872 16.5168 20.3554 15.9763 20.3554C15.4357 20.3554 15 19.8812 15 19.3063C15 18.7254 15.4357 18.2571 15.9763 18.2571C16.5168 18.2571 16.9526 18.7254 16.9526 19.3063Z" fill="#202020"/>
</g>
<defs>
<clipPath id="clip0_2077_6199">
<rect width="20" height="27" fill="white" transform="translate(15 10)"/>
</clipPath>
</defs>
</svg>
