<svg width="800" height="580" viewBox="0 0 800 580" fill="none" xmlns="http://www.w3.org/2000/svg">
<path d="M690.224 222.186H690.161C690.161 221.734 690.224 221.283 690.224 220.831C690.224 159.24 641.28 109.258 580.827 109.258C573.049 109.258 565.461 110.097 558.189 111.709C536.499 57.9219 484.71 20 424.13 20C378.664 20 338.131 41.4117 311.572 74.8191C293.94 65.674 274.441 60.9012 254.66 60.8886C189.212 60.8886 135.462 111.709 129.202 176.783C58.0624 180.652 0.961057 240.115 0.0125298 313.959C-0.999232 390.835 59.3903 454.038 134.767 455.005C140.647 455.07 146.339 454.683 152.03 453.973C181.181 516.661 243.721 560 316.251 560C360.01 560 400.101 544.199 431.466 517.951C455.432 536.073 485.026 546.908 517.149 546.908C583.04 546.908 638.498 501.827 655.761 440.236C666.637 443.913 678.209 445.976 690.287 445.976C750.866 445.976 800 395.865 800 334.081C799.937 272.297 750.866 222.186 690.224 222.186Z" fill="url(#paint0_radial_2406_5701)"/>
<circle cx="400" cy="290" r="288" stroke="#A6F4A9" stroke-width="4"/>
<circle cx="400" cy="290" r="228" stroke="#E1FFE3" stroke-width="4"/>
<circle cx="400" cy="290" r="168" stroke="white" stroke-width="4"/>
<defs>
<radialGradient id="paint0_radial_2406_5701" cx="0" cy="0" r="1" gradientUnits="userSpaceOnUse" gradientTransform="translate(400 290) rotate(90) scale(270 400)">
<stop stop-color="#19DF21" stop-opacity="0.8"/>
<stop offset="0.380208" stop-color="#19DF21" stop-opacity="0.6"/>
<stop offset="0.770833" stop-color="#19DF21" stop-opacity="0.2"/>
<stop offset="1" stop-color="#15E61D" stop-opacity="0.06"/>
</radialGradient>
</defs>
</svg>
