<svg width="44" height="44" viewBox="0 0 44 44" fill="none" xmlns="http://www.w3.org/2000/svg">
<path d="M30.5866 42.653L8.30745 36.6823L8.30737 36.6823C0.982842 34.72 -1.47017 25.5654 3.89226 20.203L20.203 3.89226L20.2031 3.89213C25.5632 -1.47001 34.72 0.982731 36.6823 8.30737L36.6823 8.30742L42.653 30.5888L43.6189 30.33L42.653 30.5888C44.6152 37.911 37.9115 44.6154 30.5866 42.653ZM30.5866 42.653L30.3277 43.6189L30.5866 42.653Z" fill="white" stroke="#81D936" stroke-width="2"/>
<rect x="18" y="13" width="13" height="22" fill="#93D25D"/>
<path d="M30.3333 12H18.6667C18.2246 12 17.8007 12.1806 17.4882 12.5021C17.1756 12.8236 17 13.2596 17 13.7143V34.2857C17 34.7404 17.1756 35.1764 17.4882 35.4979C17.8007 35.8194 18.2246 36 18.6667 36H30.3333C30.7754 36 31.1993 35.8194 31.5118 35.4979C31.8244 35.1764 32 34.7404 32 34.2857V13.7143C32 13.2596 31.8244 12.8236 31.5118 12.5021C31.1993 12.1806 30.7754 12 30.3333 12ZM25.3333 34.2857H23.6667V32.5714H25.3333V34.2857ZM18.6667 30.8571V13.7143H30.3333V30.8571H18.6667Z" fill="black"/>
</svg>
