<svg width="80" height="80" viewBox="0 0 80 80" fill="none" xmlns="http://www.w3.org/2000/svg">
<g clip-path="url(#clip0_1748_4386)">
<path d="M14.1667 6.44812e-06H65.8333C67.6942 -0.00179242 69.5372 0.372807 71.2568 1.10237C72.9763 1.83193 74.5387 2.90212 75.8546 4.25171C77.1704 5.60129 78.2139 7.20377 78.9252 8.96743C79.6365 10.7311 80.0018 12.6213 80 14.5299V65.4701C80.0018 67.3787 79.6365 69.2689 78.9252 71.0326C78.2139 72.7962 77.1704 74.3987 75.8546 75.7483C74.5387 77.0979 72.9763 78.1681 71.2568 78.8976C69.5372 79.6272 67.6942 80.0018 65.8333 80H14.1667C12.3058 80.0018 10.4628 79.6272 8.74325 78.8976C7.02368 78.1681 5.46126 77.0979 4.14541 75.7483C2.82957 74.3987 1.78613 72.7962 1.07481 71.0326C0.363487 69.2689 -0.00174761 67.3787 6.28692e-06 65.4701V14.5299C-0.00174761 12.6213 0.363487 10.7311 1.07481 8.96743C1.78613 7.20377 2.82957 5.60129 4.14541 4.25171C5.46126 2.90212 7.02368 1.83193 8.74325 1.10237C10.4628 0.372807 12.3058 -0.00179242 14.1667 6.44812e-06Z" fill="#000B1D"/>
<path d="M31.6663 65.6409C36.2687 65.6409 39.9997 61.8143 39.9997 57.0939V48.5469H31.6663C27.064 48.5469 23.333 52.3735 23.333 57.0939C23.333 61.8143 27.064 65.6409 31.6663 65.6409Z" fill="#0ACF83"/>
<path d="M23.333 40.0001C23.333 35.2797 27.064 31.4531 31.6663 31.4531H39.9997V48.5471H31.6663C27.064 48.5471 23.333 44.7205 23.333 40.0001Z" fill="#A259FF"/>
<path d="M23.333 22.9059C23.333 18.1855 27.064 14.3589 31.6663 14.3589H39.9997V31.4529H31.6663C27.064 31.4529 23.333 27.6263 23.333 22.9059Z" fill="#F24E1E"/>
<path d="M40 14.3589H48.3333C52.9357 14.3589 56.6667 18.1855 56.6667 22.9059C56.6667 27.6263 52.9357 31.4529 48.3333 31.4529H40V14.3589Z" fill="#FF7262"/>
<path d="M56.6667 40.0001C56.6667 44.7205 52.9357 48.5471 48.3333 48.5471C43.731 48.5471 40 44.7205 40 40.0001C40 35.2797 43.731 31.4531 48.3333 31.4531C52.9357 31.4531 56.6667 35.2797 56.6667 40.0001Z" fill="#1ABCFE"/>
</g>
<defs>
<clipPath id="clip0_1748_4386">
<rect width="80" height="80" fill="white"/>
</clipPath>
</defs>
</svg>
