<svg width="80" height="80" viewBox="0 0 80 80" fill="none" xmlns="http://www.w3.org/2000/svg">
<path d="M14.1667 6.44812e-06H65.8333C67.6942 -0.00179242 69.5372 0.372807 71.2568 1.10237C72.9763 1.83193 74.5387 2.90212 75.8546 4.25171C77.1704 5.60129 78.2139 7.20377 78.9252 8.96743C79.6365 10.7311 80.0018 12.6213 80 14.5299V65.4701C80.0018 67.3787 79.6365 69.2689 78.9252 71.0326C78.2139 72.7962 77.1704 74.3987 75.8546 75.7483C74.5387 77.0979 72.9763 78.1681 71.2568 78.8976C69.5372 79.6272 67.6942 80.0018 65.8333 80H14.1667C12.3058 80.0018 10.4628 79.6272 8.74325 78.8976C7.02368 78.1681 5.46126 77.0979 4.14541 75.7483C2.82957 74.3987 1.78613 72.7962 1.07481 71.0326C0.363487 69.2689 -0.00174761 67.3787 6.28692e-06 65.4701V14.5299C-0.00174761 12.6213 0.363487 10.7311 1.07481 8.96743C1.78613 7.20377 2.82957 5.60129 4.14541 4.25171C5.46126 2.90212 7.02368 1.83193 8.74325 1.10237C10.4628 0.372807 12.3058 -0.00179242 14.1667 6.44812e-06Z" fill="#3E0929"/>
<path fill-rule="evenodd" clip-rule="evenodd" d="M40.2705 58.7296L40.4205 67.9265C39.048 67.9272 37.7291 67.3932 36.7437 66.4378L36.0255 65.5828L18.5787 44.8359L12.6443 37.7728C12.6287 37.7644 12.6162 37.7513 12.6087 37.7353L12.5149 37.6265L12.4962 37.6021C12.3801 37.4491 12.2872 37.2798 12.2205 37.0996C12.1318 36.8787 12.0829 36.6439 12.0762 36.4059V36.2634C12.0762 36.2184 12.0799 36.1715 12.0893 36.1265C12.1303 35.6646 12.3258 35.2299 12.6443 34.8928C13.0249 34.4803 13.578 34.2178 14.1855 34.2178H20.0449L40.2687 58.7334L40.2724 58.7296H40.2705Z" fill="#FCD1CA"/>
<path fill-rule="evenodd" clip-rule="evenodd" d="M40.2667 47.7006V59.0987L12.603 26.0875C12.4368 25.9014 12.3059 25.6867 12.2167 25.4537C12.1291 25.2306 12.0809 24.994 12.0742 24.7544V24.6137C12.0884 24.1042 12.2908 23.6179 12.6423 23.2487C13.0211 22.8306 13.5742 22.5737 14.1836 22.5737H19.4298L40.2667 47.7006Z" fill="#FF9D8D"/>
<path fill-rule="evenodd" clip-rule="evenodd" d="M14.1724 11.5429C13.8841 11.5414 13.5986 11.6003 13.3344 11.7159C13.0702 11.8316 12.8332 12.0013 12.6387 12.2142C12.3012 12.5686 12.0912 13.0486 12.0762 13.5717V13.7104C12.0818 13.9598 12.1305 14.1923 12.2187 14.4042C12.2205 14.4248 12.2299 14.4417 12.2374 14.4604C12.329 14.6809 12.4599 14.883 12.6237 15.0567L12.6537 15.0904L40.2668 47.7004V67.9261C41.6315 67.929 42.9435 67.3988 43.923 66.4486C43.9287 66.4486 43.9287 66.4486 43.9287 66.4448L67.9287 37.9523C67.9587 37.9223 67.9849 37.8886 68.0112 37.8548C68.1387 37.6973 68.2399 37.5192 68.3149 37.3242C68.4087 37.0917 68.4574 36.8367 68.4574 36.5648V13.6373C68.4598 13.1059 68.2569 12.5941 67.8912 12.2086C67.6958 11.9965 67.4583 11.8276 67.1939 11.7126C66.9294 11.5977 66.6439 11.5392 66.3555 11.5411H14.1743L14.1724 11.5429Z" fill="#FF6661"/>
</svg>
